<svg xmlns="http://www.w3.org/2000/svg" width="690" height="132" viewBox="0 0 690 132">
<rect x="0.5" y="0.5" width="689" height="131" fill="none" rx="8" ry="8" stroke="#30363d"/>
<text x="18" y="54" font-family="ui-sans-serif, -apple-system, Segoe UI, Roboto, Helvetica, Arial" font-size="9" fill="#8b949e" text-anchor="end">Mon</text>
<text x="18" y="78" font-family="ui-sans-serif, -apple-system, Segoe UI, Roboto, Helvetica, Arial" font-size="9" fill="#8b949e" text-anchor="end">Wed</text>
<text x="18" y="102" font-family="ui-sans-serif, -apple-system, Segoe UI, Roboto, Helvetica, Arial" font-size="9" fill="#8b949e" text-anchor="end">Fri</text>
<text x="40" y="27" font-family="ui-sans-serif, -apple-system, Segoe UI, Roboto, Helvetica, Arial" font-size="10" fill="#8b949e" text-anchor="start">Dec</text>
<text x="52" y="27" font-family="ui-sans-serif, -apple-system, Segoe UI, Roboto, Helvetica, Arial" font-size="10" fill="#8b949e" text-anchor="start">Jan</text>
<text x="100" y="27" font-family="ui-sans-serif, -apple-system, Segoe UI, Roboto, Helvetica, Arial" font-size="10" fill="#8b949e" text-anchor="start">Feb</text>
<text x="148" y="27" font-family="ui-sans-serif, -apple-system, Segoe UI, Roboto, Helvetica, Arial" font-size="10" fill="#8b949e" text-anchor="start">Mar</text>
<text x="208" y="27" font-family="ui-sans-serif, -apple-system, Segoe UI, Roboto, Helvetica, Arial" font-size="10" fill="#8b949e" text-anchor="start">Apr</text>
<text x="256" y="27" font-family="ui-sans-serif, -apple-system, Segoe UI, Roboto, Helvetica, Arial" font-size="10" fill="#8b949e" text-anchor="start">May</text>
<text x="304" y="27" font-family="ui-sans-serif, -apple-system, Segoe UI, Roboto, Helvetica, Arial" font-size="10" fill="#8b949e" text-anchor="start">Jun</text>
<text x="364" y="27" font-family="ui-sans-serif, -apple-system, Segoe UI, Roboto, Helvetica, Arial" font-size="10" fill="#8b949e" text-anchor="start">Jul</text>
<text x="412" y="27" font-family="ui-sans-serif, -apple-system, Segoe UI, Roboto, Helvetica, Arial" font-size="10" fill="#8b949e" text-anchor="start">Aug</text>
<text x="472" y="27" font-family="ui-sans-serif, -apple-system, Segoe UI, Roboto, Helvetica, Arial" font-size="10" fill="#8b949e" text-anchor="start">Sep</text>
<text x="520" y="27" font-family="ui-sans-serif, -apple-system, Segoe UI, Roboto, Helvetica, Arial" font-size="10" fill="#8b949e" text-anchor="start">Oct</text>
<text x="568" y="27" font-family="ui-sans-serif, -apple-system, Segoe UI, Roboto, Helvetica, Arial" font-size="10" fill="#8b949e" text-anchor="start">Nov</text>
<text x="628" y="27" font-family="ui-sans-serif, -apple-system, Segoe UI, Roboto, Helvetica, Arial" font-size="10" fill="#8b949e" text-anchor="start">Dec</text>
<rect x="40" y="34" width="10" height="10" fill="#2d333b" rx="3" ry="3"/>
<rect x="40" y="46" width="10" height="10" fill="#2d333b" rx="3" ry="3"/>
<rect x="40" y="58" width="10" height="10" fill="#2d333b" rx="3" ry="3"/>
<rect x="40" y="70" width="10" height="10" fill="#2d333b" rx="3" ry="3"/>
<rect x="40" y="82" width="10" height="10" fill="#2d333b" rx="3" ry="3"/>
<rect x="40" y="94" width="10" height="10" fill="#2d333b" rx="3" ry="3"/>
<rect x="40" y="106" width="10" height="10" fill="#2d333b" rx="3" ry="3"/>
<rect x="52" y="34" width="10" height="10" fill="#2d333b" rx="3" ry="3"/>
<rect x="52" y="46" width="10" height="10" fill="#2d333b" rx="3" ry="3"/>
<rect x="52" y="58" width="10" height="10" fill="#2d333b" rx="3" ry="3"/>
<rect x="52" y="70" width="10" height="10" fill="#2d333b" rx="3" ry="3"/>
<rect x="52" y="82" width="10" height="10" fill="#2d333b" rx="3" ry="3"/>
<rect x="52" y="94" width="10" height="10" fill="#2d333b" rx="3" ry="3"/>
<rect x="52" y="106" width="10" height="10" fill="#2d333b" rx="3" ry="3"/>
<rect x="64" y="34" width="10" height="10" fill="#2d333b" rx="3" ry="3"/>
<rect x="64" y="46" width="10" height="10" fill="#2d333b" rx="3" ry="3"/>
<rect x="64" y="58" width="10" height="10" fill="#2d333b" rx="3" ry="3"/>
<rect x="64" y="70" width="10" height="10" fill="#2d333b" rx="3" ry="3"/>
<rect x="64" y="82" width="10" height="10" fill="#2d333b" rx="3" ry="3"/>
<rect x="64" y="94" width="10" height="10" fill="#2d333b" rx="3" ry="3"/>
<rect x="64" y="106" width="10" height="10" fill="#2d333b" rx="3" ry="3"/>
<rect x="76" y="34" width="10" height="10" fill="#2d333b" rx="3" ry="3"/>
<rect x="76" y="46" width="10" height="10" fill="#2d333b" rx="3" ry="3"/>
<rect x="76" y="58" width="10" height="10" fill="#2d333b" rx="3" ry="3"/>
<rect x="76" y="70" width="10" height="10" fill="#2d333b" rx="3" ry="3"/>
<rect x="76" y="82" width="10" height="10" fill="#2d333b" rx="3" ry="3"/>
<rect x="76" y="94" width="10" height="10" fill="#2d333b" rx="3" ry="3"/>
<rect x="76" y="106" width="10" height="10" fill="#2d333b" rx="3" ry="3"/>
<rect x="88" y="34" width="10" height="10" fill="#2d333b" rx="3" ry="3"/>
<rect x="88" y="46" width="10" height="10" fill="#2d333b" rx="3" ry="3"/>
<rect x="88" y="58" width="10" height="10" fill="#2d333b" rx="3" ry="3"/>
<rect x="88" y="70" width="10" height="10" fill="#2d333b" rx="3" ry="3"/>
<rect x="88" y="82" width="10" height="10" fill="#2d333b" rx="3" ry="3"/>
<rect x="88" y="94" width="10" height="10" fill="#2d333b" rx="3" ry="3"/>
<rect x="88" y="106" width="10" height="10" fill="#2d333b" rx="3" ry="3"/>
<rect x="100" y="34" width="10" height="10" fill="#2d333b" rx="3" ry="3"/>
<rect x="100" y="46" width="10" height="10" fill="#2d333b" rx="3" ry="3"/>
<rect x="100" y="58" width="10" height="10" fill="#2d333b" rx="3" ry="3"/>
<rect x="100" y="70" width="10" height="10" fill="#2d333b" rx="3" ry="3"/>
<rect x="100" y="82" width="10" height="10" fill="#2d333b" rx="3" ry="3"/>
<rect x="100" y="94" width="10" height="10" fill="#2d333b" rx="3" ry="3"/>
<rect x="100" y="106" width="10" height="10" fill="#2d333b" rx="3" ry="3"/>
<rect x="112" y="34" width="10" height="10" fill="#2d333b" rx="3" ry="3"/>
<rect x="112" y="46" width="10" height="10" fill="#2d333b" rx="3" ry="3"/>
<rect x="112" y="58" width="10" height="10" fill="#2d333b" rx="3" ry="3"/>
<rect x="112" y="70" width="10" height="10" fill="#2d333b" rx="3" ry="3"/>
<rect x="112" y="82" width="10" height="10" fill="#2d333b" rx="3" ry="3"/>
<rect x="112" y="94" width="10" height="10" fill="#2d333b" rx="3" ry="3"/>
<rect x="112" y="106" width="10" height="10" fill="#2d333b" rx="3" ry="3"/>
<rect x="124" y="34" width="10" height="10" fill="#2d333b" rx="3" ry="3"/>
<rect x="124" y="46" width="10" height="10" fill="#2d333b" rx="3" ry="3"/>
<rect x="124" y="58" width="10" height="10" fill="#2d333b" rx="3" ry="3"/>
<rect x="124" y="70" width="10" height="10" fill="#2d333b" rx="3" ry="3"/>
<rect x="124" y="82" width="10" height="10" fill="#2d333b" rx="3" ry="3"/>
<rect x="124" y="94" width="10" height="10" fill="#2d333b" rx="3" ry="3"/>
<rect x="124" y="106" width="10" height="10" fill="#2d333b" rx="3" ry="3"/>
<rect x="136" y="34" width="10" height="10" fill="#2d333b" rx="3" ry="3"/>
<rect x="136" y="46" width="10" height="10" fill="#2d333b" rx="3" ry="3"/>
<rect x="136" y="58" width="10" height="10" fill="#2d333b" rx="3" ry="3"/>
<rect x="136" y="70" width="10" height="10" fill="#2d333b" rx="3" ry="3"/>
<rect x="136" y="82" width="10" height="10" fill="#2d333b" rx="3" ry="3"/>
<rect x="136" y="94" width="10" height="10" fill="#2d333b" rx="3" ry="3"/>
<rect x="136" y="106" width="10" height="10" fill="#2d333b" rx="3" ry="3"/>
<rect x="148" y="34" width="10" height="10" fill="#2d333b" rx="3" ry="3"/>
<rect x="148" y="46" width="10" height="10" fill="#2d333b" rx="3" ry="3"/>
<rect x="148" y="58" width="10" height="10" fill="#2d333b" rx="3" ry="3"/>
<rect x="148" y="70" width="10" height="10" fill="#2d333b" rx="3" ry="3"/>
<rect x="148" y="82" width="10" height="10" fill="#2d333b" rx="3" ry="3"/>
<rect x="148" y="94" width="10" height="10" fill="#2d333b" rx="3" ry="3"/>
<rect x="148" y="106" width="10" height="10" fill="#2d333b" rx="3" ry="3"/>
<rect x="160" y="34" width="10" height="10" fill="#2d333b" rx="3" ry="3"/>
<rect x="160" y="46" width="10" height="10" fill="#2d333b" rx="3" ry="3"/>
<rect x="160" y="58" width="10" height="10" fill="#2d333b" rx="3" ry="3"/>
<rect x="160" y="70" width="10" height="10" fill="#2d333b" rx="3" ry="3"/>
<rect x="160" y="82" width="10" height="10" fill="#2d333b" rx="3" ry="3"/>
<rect x="160" y="94" width="10" height="10" fill="#2d333b" rx="3" ry="3"/>
<rect x="160" y="106" width="10" height="10" fill="#2d333b" rx="3" ry="3"/>
<rect x="172" y="34" width="10" height="10" fill="#2d333b" rx="3" ry="3"/>
<rect x="172" y="46" width="10" height="10" fill="#2d333b" rx="3" ry="3"/>
<rect x="172" y="58" width="10" height="10" fill="#2d333b" rx="3" ry="3"/>
<rect x="172" y="70" width="10" height="10" fill="#2d333b" rx="3" ry="3"/>
<rect x="172" y="82" width="10" height="10" fill="#2d333b" rx="3" ry="3"/>
<rect x="172" y="94" width="10" height="10" fill="#2d333b" rx="3" ry="3"/>
<rect x="172" y="106" width="10" height="10" fill="#2d333b" rx="3" ry="3"/>
<rect x="184" y="34" width="10" height="10" fill="#2d333b" rx="3" ry="3"/>
<rect x="184" y="46" width="10" height="10" fill="#2d333b" rx="3" ry="3"/>
<rect x="184" y="58" width="10" height="10" fill="#2d333b" rx="3" ry="3"/>
<rect x="184" y="70" width="10" height="10" fill="#2d333b" rx="3" ry="3"/>
<rect x="184" y="82" width="10" height="10" fill="#2d333b" rx="3" ry="3"/>
<rect x="184" y="94" width="10" height="10" fill="#2d333b" rx="3" ry="3"/>
<rect x="184" y="106" width="10" height="10" fill="#2d333b" rx="3" ry="3"/>
<rect x="196" y="34" width="10" height="10" fill="#2d333b" rx="3" ry="3"/>
<rect x="196" y="46" width="10" height="10" fill="#2d333b" rx="3" ry="3"/>
<rect x="196" y="58" width="10" height="10" fill="#2d333b" rx="3" ry="3"/>
<rect x="196" y="70" width="10" height="10" fill="#2d333b" rx="3" ry="3"/>
<rect x="196" y="82" width="10" height="10" fill="#2d333b" rx="3" ry="3"/>
<rect x="196" y="94" width="10" height="10" fill="#2d333b" rx="3" ry="3"/>
<rect x="196" y="106" width="10" height="10" fill="#2d333b" rx="3" ry="3"/>
<rect x="208" y="34" width="10" height="10" fill="#2d333b" rx="3" ry="3"/>
<rect x="208" y="46" width="10" height="10" fill="#2d333b" rx="3" ry="3"/>
<rect x="208" y="58" width="10" height="10" fill="#2d333b" rx="3" ry="3"/>
<rect x="208" y="70" width="10" height="10" fill="#2d333b" rx="3" ry="3"/>
<rect x="208" y="82" width="10" height="10" fill="#2d333b" rx="3" ry="3"/>
<rect x="208" y="94" width="10" height="10" fill="#2d333b" rx="3" ry="3"/>
<rect x="208" y="106" width="10" height="10" fill="#2d333b" rx="3" ry="3"/>
<rect x="220" y="34" width="10" height="10" fill="#2d333b" rx="3" ry="3"/>
<rect x="220" y="46" width="10" height="10" fill="#2d333b" rx="3" ry="3"/>
<rect x="220" y="58" width="10" height="10" fill="#2d333b" rx="3" ry="3"/>
<rect x="220" y="70" width="10" height="10" fill="#2d333b" rx="3" ry="3"/>
<rect x="220" y="82" width="10" height="10" fill="#2d333b" rx="3" ry="3"/>
<rect x="220" y="94" width="10" height="10" fill="#2d333b" rx="3" ry="3"/>
<rect x="220" y="106" width="10" height="10" fill="#2d333b" rx="3" ry="3"/>
<rect x="232" y="34" width="10" height="10" fill="#2d333b" rx="3" ry="3"/>
<rect x="232" y="46" width="10" height="10" fill="#2d333b" rx="3" ry="3"/>
<rect x="232" y="58" width="10" height="10" fill="#2d333b" rx="3" ry="3"/>
<rect x="232" y="70" width="10" height="10" fill="#2d333b" rx="3" ry="3"/>
<rect x="232" y="82" width="10" height="10" fill="#2d333b" rx="3" ry="3"/>
<rect x="232" y="94" width="10" height="10" fill="#2d333b" rx="3" ry="3"/>
<rect x="232" y="106" width="10" height="10" fill="#2d333b" rx="3" ry="3"/>
<rect x="244" y="34" width="10" height="10" fill="#2d333b" rx="3" ry="3"/>
<rect x="244" y="46" width="10" height="10" fill="#2d333b" rx="3" ry="3"/>
<rect x="244" y="58" width="10" height="10" fill="#2d333b" rx="3" ry="3"/>
<rect x="244" y="70" width="10" height="10" fill="#2d333b" rx="3" ry="3"/>
<rect x="244" y="82" width="10" height="10" fill="#2d333b" rx="3" ry="3"/>
<rect x="244" y="94" width="10" height="10" fill="#2d333b" rx="3" ry="3"/>
<rect x="244" y="106" width="10" height="10" fill="#2d333b" rx="3" ry="3"/>
<rect x="256" y="34" width="10" height="10" fill="#2d333b" rx="3" ry="3"/>
<rect x="256" y="46" width="10" height="10" fill="#2d333b" rx="3" ry="3"/>
<rect x="256" y="58" width="10" height="10" fill="#2d333b" rx="3" ry="3"/>
<rect x="256" y="70" width="10" height="10" fill="#2d333b" rx="3" ry="3"/>
<rect x="256" y="82" width="10" height="10" fill="#2d333b" rx="3" ry="3"/>
<rect x="256" y="94" width="10" height="10" fill="#2d333b" rx="3" ry="3"/>
<rect x="256" y="106" width="10" height="10" fill="#2d333b" rx="3" ry="3"/>
<rect x="268" y="34" width="10" height="10" fill="#2d333b" rx="3" ry="3"/>
<rect x="268" y="46" width="10" height="10" fill="#2d333b" rx="3" ry="3"/>
<rect x="268" y="58" width="10" height="10" fill="#2d333b" rx="3" ry="3"/>
<rect x="268" y="70" width="10" height="10" fill="#2d333b" rx="3" ry="3"/>
<rect x="268" y="82" width="10" height="10" fill="#2d333b" rx="3" ry="3"/>
<rect x="268" y="94" width="10" height="10" fill="#2d333b" rx="3" ry="3"/>
<rect x="268" y="106" width="10" height="10" fill="#2d333b" rx="3" ry="3"/>
<rect x="280" y="34" width="10" height="10" fill="#2d333b" rx="3" ry="3"/>
<rect x="280" y="46" width="10" height="10" fill="#2d333b" rx="3" ry="3"/>
<rect x="280" y="58" width="10" height="10" fill="#2d333b" rx="3" ry="3"/>
<rect x="280" y="70" width="10" height="10" fill="#2d333b" rx="3" ry="3"/>
<rect x="280" y="82" width="10" height="10" fill="#2d333b" rx="3" ry="3"/>
<rect x="280" y="94" width="10" height="10" fill="#2d333b" rx="3" ry="3"/>
<rect x="280" y="106" width="10" height="10" fill="#2d333b" rx="3" ry="3"/>
<rect x="292" y="34" width="10" height="10" fill="#2d333b" rx="3" ry="3"/>
<rect x="292" y="46" width="10" height="10" fill="#2d333b" rx="3" ry="3"/>
<rect x="292" y="58" width="10" height="10" fill="#2d333b" rx="3" ry="3"/>
<rect x="292" y="70" width="10" height="10" fill="#2d333b" rx="3" ry="3"/>
<rect x="292" y="82" width="10" height="10" fill="#2d333b" rx="3" ry="3"/>
<rect x="292" y="94" width="10" height="10" fill="#2d333b" rx="3" ry="3"/>
<rect x="292" y="106" width="10" height="10" fill="#2d333b" rx="3" ry="3"/>
<rect x="304" y="34" width="10" height="10" fill="#2d333b" rx="3" ry="3"/>
<rect x="304" y="46" width="10" height="10" fill="#2d333b" rx="3" ry="3"/>
<rect x="304" y="58" width="10" height="10" fill="#2d333b" rx="3" ry="3"/>
<rect x="304" y="70" width="10" height="10" fill="#2d333b" rx="3" ry="3"/>
<rect x="304" y="82" width="10" height="10" fill="#2d333b" rx="3" ry="3"/>
<rect x="304" y="94" width="10" height="10" fill="#2d333b" rx="3" ry="3"/>
<rect x="304" y="106" width="10" height="10" fill="#2d333b" rx="3" ry="3"/>
<rect x="316" y="34" width="10" height="10" fill="#2d333b" rx="3" ry="3"/>
<rect x="316" y="46" width="10" height="10" fill="#2d333b" rx="3" ry="3"/>
<rect x="316" y="58" width="10" height="10" fill="#2d333b" rx="3" ry="3"/>
<rect x="316" y="70" width="10" height="10" fill="#2d333b" rx="3" ry="3"/>
<rect x="316" y="82" width="10" height="10" fill="#2d333b" rx="3" ry="3"/>
<rect x="316" y="94" width="10" height="10" fill="#2d333b" rx="3" ry="3"/>
<rect x="316" y="106" width="10" height="10" fill="#2d333b" rx="3" ry="3"/>
<rect x="328" y="34" width="10" height="10" fill="#2d333b" rx="3" ry="3"/>
<rect x="328" y="46" width="10" height="10" fill="#2d333b" rx="3" ry="3"/>
<rect x="328" y="58" width="10" height="10" fill="#2d333b" rx="3" ry="3"/>
<rect x="328" y="70" width="10" height="10" fill="#2d333b" rx="3" ry="3"/>
<rect x="328" y="82" width="10" height="10" fill="#2d333b" rx="3" ry="3"/>
<rect x="328" y="94" width="10" height="10" fill="#2d333b" rx="3" ry="3"/>
<rect x="328" y="106" width="10" height="10" fill="#2d333b" rx="3" ry="3"/>
<rect x="340" y="34" width="10" height="10" fill="#2d333b" rx="3" ry="3"/>
<rect x="340" y="46" width="10" height="10" fill="#2d333b" rx="3" ry="3"/>
<rect x="340" y="58" width="10" height="10" fill="#2d333b" rx="3" ry="3"/>
<rect x="340" y="70" width="10" height="10" fill="#2d333b" rx="3" ry="3"/>
<rect x="340" y="82" width="10" height="10" fill="#2d333b" rx="3" ry="3"/>
<rect x="340" y="94" width="10" height="10" fill="#2d333b" rx="3" ry="3"/>
<rect x="340" y="106" width="10" height="10" fill="#2d333b" rx="3" ry="3"/>
<rect x="352" y="34" width="10" height="10" fill="#2d333b" rx="3" ry="3"/>
<rect x="352" y="46" width="10" height="10" fill="#2d333b" rx="3" ry="3"/>
<rect x="352" y="58" width="10" height="10" fill="#2d333b" rx="3" ry="3"/>
<rect x="352" y="70" width="10" height="10" fill="#2d333b" rx="3" ry="3"/>
<rect x="352" y="82" width="10" height="10" fill="#2d333b" rx="3" ry="3"/>
<rect x="352" y="94" width="10" height="10" fill="#2d333b" rx="3" ry="3"/>
<rect x="352" y="106" width="10" height="10" fill="#2d333b" rx="3" ry="3"/>
<rect x="364" y="34" width="10" height="10" fill="#2d333b" rx="3" ry="3"/>
<rect x="364" y="46" width="10" height="10" fill="#2d333b" rx="3" ry="3"/>
<rect x="364" y="58" width="10" height="10" fill="#2d333b" rx="3" ry="3"/>
<rect x="364" y="70" width="10" height="10" fill="#2d333b" rx="3" ry="3"/>
<rect x="364" y="82" width="10" height="10" fill="#2d333b" rx="3" ry="3"/>
<rect x="364" y="94" width="10" height="10" fill="#2d333b" rx="3" ry="3"/>
<rect x="364" y="106" width="10" height="10" fill="#2d333b" rx="3" ry="3"/>
<rect x="376" y="34" width="10" height="10" fill="#2d333b" rx="3" ry="3"/>
<rect x="376" y="46" width="10" height="10" fill="#2d333b" rx="3" ry="3"/>
<rect x="376" y="58" width="10" height="10" fill="#2d333b" rx="3" ry="3"/>
<rect x="376" y="70" width="10" height="10" fill="#2d333b" rx="3" ry="3"/>
<rect x="376" y="82" width="10" height="10" fill="#2d333b" rx="3" ry="3"/>
<rect x="376" y="94" width="10" height="10" fill="#2d333b" rx="3" ry="3"/>
<rect x="376" y="106" width="10" height="10" fill="#2d333b" rx="3" ry="3"/>
<rect x="388" y="34" width="10" height="10" fill="#2d333b" rx="3" ry="3"/>
<rect x="388" y="46" width="10" height="10" fill="#2d333b" rx="3" ry="3"/>
<rect x="388" y="58" width="10" height="10" fill="#2d333b" rx="3" ry="3"/>
<rect x="388" y="70" width="10" height="10" fill="#2d333b" rx="3" ry="3"/>
<rect x="388" y="82" width="10" height="10" fill="#2d333b" rx="3" ry="3"/>
<rect x="388" y="94" width="10" height="10" fill="#2d333b" rx="3" ry="3"/>
<rect x="388" y="106" width="10" height="10" fill="#2d333b" rx="3" ry="3"/>
<rect x="400" y="34" width="10" height="10" fill="#2d333b" rx="3" ry="3"/>
<rect x="400" y="46" width="10" height="10" fill="#2d333b" rx="3" ry="3"/>
<rect x="400" y="58" width="10" height="10" fill="#2d333b" rx="3" ry="3"/>
<rect x="400" y="70" width="10" height="10" fill="#2d333b" rx="3" ry="3"/>
<rect x="400" y="82" width="10" height="10" fill="#2d333b" rx="3" ry="3"/>
<rect x="400" y="94" width="10" height="10" fill="#2d333b" rx="3" ry="3"/>
<rect x="400" y="106" width="10" height="10" fill="#2d333b" rx="3" ry="3"/>
<rect x="412" y="34" width="10" height="10" fill="#2d333b" rx="3" ry="3"/>
<rect x="412" y="46" width="10" height="10" fill="#2d333b" rx="3" ry="3"/>
<rect x="412" y="58" width="10" height="10" fill="#2d333b" rx="3" ry="3"/>
<rect x="412" y="70" width="10" height="10" fill="#2d333b" rx="3" ry="3"/>
<rect x="412" y="82" width="10" height="10" fill="#2d333b" rx="3" ry="3"/>
<rect x="412" y="94" width="10" height="10" fill="#2d333b" rx="3" ry="3"/>
<rect x="412" y="106" width="10" height="10" fill="#2d333b" rx="3" ry="3"/>
<rect x="424" y="34" width="10" height="10" fill="#2d333b" rx="3" ry="3"/>
<rect x="424" y="46" width="10" height="10" fill="#2d333b" rx="3" ry="3"/>
<rect x="424" y="58" width="10" height="10" fill="#2d333b" rx="3" ry="3"/>
<rect x="424" y="70" width="10" height="10" fill="#2d333b" rx="3" ry="3"/>
<rect x="424" y="82" width="10" height="10" fill="#2d333b" rx="3" ry="3"/>
<rect x="424" y="94" width="10" height="10" fill="#2d333b" rx="3" ry="3"/>
<rect x="424" y="106" width="10" height="10" fill="#2d333b" rx="3" ry="3"/>
<rect x="436" y="34" width="10" height="10" fill="#2d333b" rx="3" ry="3"/>
<rect x="436" y="46" width="10" height="10" fill="#2d333b" rx="3" ry="3"/>
<rect x="436" y="58" width="10" height="10" fill="#2d333b" rx="3" ry="3"/>
<rect x="436" y="70" width="10" height="10" fill="#2d333b" rx="3" ry="3"/>
<rect x="436" y="82" width="10" height="10" fill="#2d333b" rx="3" ry="3"/>
<rect x="436" y="94" width="10" height="10" fill="#2d333b" rx="3" ry="3"/>
<rect x="436" y="106" width="10" height="10" fill="#2d333b" rx="3" ry="3"/>
<rect x="448" y="34" width="10" height="10" fill="#2d333b" rx="3" ry="3"/>
<rect x="448" y="46" width="10" height="10" fill="#2d333b" rx="3" ry="3"/>
<rect x="448" y="58" width="10" height="10" fill="#2d333b" rx="3" ry="3"/>
<rect x="448" y="70" width="10" height="10" fill="#2d333b" rx="3" ry="3"/>
<rect x="448" y="82" width="10" height="10" fill="#2d333b" rx="3" ry="3"/>
<rect x="448" y="94" width="10" height="10" fill="#2d333b" rx="3" ry="3"/>
<rect x="448" y="106" width="10" height="10" fill="#2d333b" rx="3" ry="3"/>
<rect x="460" y="34" width="10" height="10" fill="#2d333b" rx="3" ry="3"/>
<rect x="460" y="46" width="10" height="10" fill="#2d333b" rx="3" ry="3"/>
<rect x="460" y="58" width="10" height="10" fill="#2d333b" rx="3" ry="3"/>
<rect x="460" y="70" width="10" height="10" fill="#2d333b" rx="3" ry="3"/>
<rect x="460" y="82" width="10" height="10" fill="#2d333b" rx="3" ry="3"/>
<rect x="460" y="94" width="10" height="10" fill="#2d333b" rx="3" ry="3"/>
<rect x="460" y="106" width="10" height="10" fill="#2d333b" rx="3" ry="3"/>
<rect x="472" y="34" width="10" height="10" fill="#2d333b" rx="3" ry="3"/>
<rect x="472" y="46" width="10" height="10" fill="#2d333b" rx="3" ry="3"/>
<rect x="472" y="58" width="10" height="10" fill="#2d333b" rx="3" ry="3"/>
<rect x="472" y="70" width="10" height="10" fill="#2d333b" rx="3" ry="3"/>
<rect x="472" y="82" width="10" height="10" fill="#2d333b" rx="3" ry="3"/>
<rect x="472" y="94" width="10" height="10" fill="#2d333b" rx="3" ry="3"/>
<rect x="472" y="106" width="10" height="10" fill="#2d333b" rx="3" ry="3"/>
<rect x="484" y="34" width="10" height="10" fill="#2d333b" rx="3" ry="3"/>
<rect x="484" y="46" width="10" height="10" fill="#2d333b" rx="3" ry="3"/>
<rect x="484" y="58" width="10" height="10" fill="#2d333b" rx="3" ry="3"/>
<rect x="484" y="70" width="10" height="10" fill="#2d333b" rx="3" ry="3"/>
<rect x="484" y="82" width="10" height="10" fill="#2d333b" rx="3" ry="3"/>
<rect x="484" y="94" width="10" height="10" fill="#2d333b" rx="3" ry="3"/>
<rect x="484" y="106" width="10" height="10" fill="#2d333b" rx="3" ry="3"/>
<rect x="496" y="34" width="10" height="10" fill="#2d333b" rx="3" ry="3"/>
<rect x="496" y="46" width="10" height="10" fill="#2d333b" rx="3" ry="3"/>
<rect x="496" y="58" width="10" height="10" fill="#2d333b" rx="3" ry="3"/>
<rect x="496" y="70" width="10" height="10" fill="#2d333b" rx="3" ry="3"/>
<rect x="496" y="82" width="10" height="10" fill="#2d333b" rx="3" ry="3"/>
<rect x="496" y="94" width="10" height="10" fill="#2d333b" rx="3" ry="3"/>
<rect x="496" y="106" width="10" height="10" fill="#2d333b" rx="3" ry="3"/>
<rect x="508" y="34" width="10" height="10" fill="#2d333b" rx="3" ry="3"/>
<rect x="508" y="46" width="10" height="10" fill="#0a84ff" rx="3" ry="3"/>
<rect x="508" y="58" width="10" height="10" fill="#2d333b" rx="3" ry="3"/>
<rect x="508" y="70" width="10" height="10" fill="#0a84ff" rx="3" ry="3"/>
<rect x="508" y="82" width="10" height="10" fill="#2d333b" rx="3" ry="3"/>
<rect x="508" y="94" width="10" height="10" fill="#2d333b" rx="3" ry="3"/>
<rect x="508" y="106" width="10" height="10" fill="#2d333b" rx="3" ry="3"/>
<rect x="520" y="34" width="10" height="10" fill="#0a84ff" rx="3" ry="3"/>
<rect x="520" y="46" width="10" height="10" fill="#2d333b" rx="3" ry="3"/>
<rect x="520" y="58" width="10" height="10" fill="#2d333b" rx="3" ry="3"/>
<rect x="520" y="70" width="10" height="10" fill="#2d333b" rx="3" ry="3"/>
<rect x="520" y="82" width="10" height="10" fill="#0a84ff" rx="3" ry="3"/>
<rect x="520" y="94" width="10" height="10" fill="#0a84ff" rx="3" ry="3"/>
<rect x="520" y="106" width="10" height="10" fill="#0a84ff" rx="3" ry="3"/>
<rect x="532" y="34" width="10" height="10" fill="#2d333b" rx="3" ry="3"/>
<rect x="532" y="46" width="10" height="10" fill="#2d333b" rx="3" ry="3"/>
<rect x="532" y="58" width="10" height="10" fill="#2d333b" rx="3" ry="3"/>
<rect x="532" y="70" width="10" height="10" fill="#0a84ff" rx="3" ry="3"/>
<rect x="532" y="82" width="10" height="10" fill="#2d333b" rx="3" ry="3"/>
<rect x="532" y="94" width="10" height="10" fill="#2d333b" rx="3" ry="3"/>
<rect x="532" y="106" width="10" height="10" fill="#2d333b" rx="3" ry="3"/>
<rect x="544" y="34" width="10" height="10" fill="#2d333b" rx="3" ry="3"/>
<rect x="544" y="46" width="10" height="10" fill="#0a84ff" rx="3" ry="3"/>
<rect x="544" y="58" width="10" height="10" fill="#2d333b" rx="3" ry="3"/>
<rect x="544" y="70" width="10" height="10" fill="#2d333b" rx="3" ry="3"/>
<rect x="544" y="82" width="10" height="10" fill="#2d333b" rx="3" ry="3"/>
<rect x="544" y="94" width="10" height="10" fill="#2d333b" rx="3" ry="3"/>
<rect x="544" y="106" width="10" height="10" fill="#2d333b" rx="3" ry="3"/>
<rect x="556" y="34" width="10" height="10" fill="#2d333b" rx="3" ry="3"/>
<rect x="556" y="46" width="10" height="10" fill="#2d333b" rx="3" ry="3"/>
<rect x="556" y="58" width="10" height="10" fill="#2d333b" rx="3" ry="3"/>
<rect x="556" y="70" width="10" height="10" fill="#2d333b" rx="3" ry="3"/>
<rect x="556" y="82" width="10" height="10" fill="#2d333b" rx="3" ry="3"/>
<rect x="556" y="94" width="10" height="10" fill="#2d333b" rx="3" ry="3"/>
<rect x="556" y="106" width="10" height="10" fill="#2d333b" rx="3" ry="3"/>
<rect x="568" y="34" width="10" height="10" fill="#2d333b" rx="3" ry="3"/>
<rect x="568" y="46" width="10" height="10" fill="#2d333b" rx="3" ry="3"/>
<rect x="568" y="58" width="10" height="10" fill="#2d333b" rx="3" ry="3"/>
<rect x="568" y="70" width="10" height="10" fill="#2d333b" rx="3" ry="3"/>
<rect x="568" y="82" width="10" height="10" fill="#2d333b" rx="3" ry="3"/>
<rect x="568" y="94" width="10" height="10" fill="#2d333b" rx="3" ry="3"/>
<rect x="568" y="106" width="10" height="10" fill="#2d333b" rx="3" ry="3"/>
<rect x="580" y="34" width="10" height="10" fill="#2d333b" rx="3" ry="3"/>
<rect x="580" y="46" width="10" height="10" fill="#2d333b" rx="3" ry="3"/>
<rect x="580" y="58" width="10" height="10" fill="#2d333b" rx="3" ry="3"/>
<rect x="580" y="70" width="10" height="10" fill="#2d333b" rx="3" ry="3"/>
<rect x="580" y="82" width="10" height="10" fill="#2d333b" rx="3" ry="3"/>
<rect x="580" y="94" width="10" height="10" fill="#2d333b" rx="3" ry="3"/>
<rect x="580" y="106" width="10" height="10" fill="#2d333b" rx="3" ry="3"/>
<rect x="592" y="34" width="10" height="10" fill="#2d333b" rx="3" ry="3"/>
<rect x="592" y="46" width="10" height="10" fill="#2d333b" rx="3" ry="3"/>
<rect x="592" y="58" width="10" height="10" fill="#2d333b" rx="3" ry="3"/>
<rect x="592" y="70" width="10" height="10" fill="#2d333b" rx="3" ry="3"/>
<rect x="592" y="82" width="10" height="10" fill="#2d333b" rx="3" ry="3"/>
<rect x="592" y="94" width="10" height="10" fill="#2d333b" rx="3" ry="3"/>
<rect x="592" y="106" width="10" height="10" fill="#2d333b" rx="3" ry="3"/>
<rect x="604" y="34" width="10" height="10" fill="#2d333b" rx="3" ry="3"/>
<rect x="604" y="46" width="10" height="10" fill="#2d333b" rx="3" ry="3"/>
<rect x="604" y="58" width="10" height="10" fill="#2d333b" rx="3" ry="3"/>
<rect x="604" y="70" width="10" height="10" fill="#2d333b" rx="3" ry="3"/>
<rect x="604" y="82" width="10" height="10" fill="#2d333b" rx="3" ry="3"/>
<rect x="604" y="94" width="10" height="10" fill="#2d333b" rx="3" ry="3"/>
<rect x="604" y="106" width="10" height="10" fill="#2d333b" rx="3" ry="3"/>
<rect x="616" y="34" width="10" height="10" fill="#2d333b" rx="3" ry="3"/>
<rect x="616" y="46" width="10" height="10" fill="#2d333b" rx="3" ry="3"/>
<rect x="616" y="58" width="10" height="10" fill="#2d333b" rx="3" ry="3"/>
<rect x="616" y="70" width="10" height="10" fill="#2d333b" rx="3" ry="3"/>
<rect x="616" y="82" width="10" height="10" fill="#2d333b" rx="3" ry="3"/>
<rect x="616" y="94" width="10" height="10" fill="#2d333b" rx="3" ry="3"/>
<rect x="616" y="106" width="10" height="10" fill="#2d333b" rx="3" ry="3"/>
<rect x="628" y="34" width="10" height="10" fill="#2d333b" rx="3" ry="3"/>
<rect x="628" y="46" width="10" height="10" fill="#2d333b" rx="3" ry="3"/>
<rect x="628" y="58" width="10" height="10" fill="#2d333b" rx="3" ry="3"/>
<rect x="628" y="70" width="10" height="10" fill="#2d333b" rx="3" ry="3"/>
<rect x="628" y="82" width="10" height="10" fill="#2d333b" rx="3" ry="3"/>
<rect x="628" y="94" width="10" height="10" fill="#2d333b" rx="3" ry="3"/>
<rect x="628" y="106" width="10" height="10" fill="#2d333b" rx="3" ry="3"/>
<rect x="640" y="34" width="10" height="10" fill="#2d333b" rx="3" ry="3"/>
<rect x="640" y="46" width="10" height="10" fill="#2d333b" rx="3" ry="3"/>
<rect x="640" y="58" width="10" height="10" fill="#2d333b" rx="3" ry="3"/>
<rect x="640" y="70" width="10" height="10" fill="#2d333b" rx="3" ry="3"/>
<rect x="640" y="82" width="10" height="10" fill="#2d333b" rx="3" ry="3"/>
<rect x="640" y="94" width="10" height="10" fill="#2d333b" rx="3" ry="3"/>
<rect x="640" y="106" width="10" height="10" fill="#2d333b" rx="3" ry="3"/>
<rect x="652" y="34" width="10" height="10" fill="#2d333b" rx="3" ry="3"/>
<rect x="652" y="46" width="10" height="10" fill="#2d333b" rx="3" ry="3"/>
<rect x="652" y="58" width="10" height="10" fill="#2d333b" rx="3" ry="3"/>
<rect x="652" y="70" width="10" height="10" fill="#2d333b" rx="3" ry="3"/>
<rect x="652" y="82" width="10" height="10" fill="#2d333b" rx="3" ry="3"/>
<rect x="652" y="94" width="10" height="10" fill="#2d333b" rx="3" ry="3"/>
<rect x="652" y="106" width="10" height="10" fill="#2d333b" rx="3" ry="3"/>
<rect x="664" y="34" width="10" height="10" fill="#2d333b" rx="3" ry="3"/>
</svg>